<svg xmlns="http://www.w3.org/2000/svg" xmlns:xlink="http://www.w3.org/1999/xlink" width="500" zoomAndPan="magnify" viewBox="0 0 375 374.999991" height="500" preserveAspectRatio="xMidYMid meet" version="1.0"><defs><g/></defs><path stroke-linecap="butt" transform="matrix(0.75, 0, 0, 0.75, 84.965646, 249.118109)" fill="none" stroke-linejoin="miter" d="M -0.00106983 5.998771 L 274.55624 5.998771 " stroke="#007bff" stroke-width="12" stroke-opacity="1" stroke-miterlimit="4"/><path stroke-linecap="butt" transform="matrix(0.75, 0, 0, 0.75, 84.965646, 104.672477)" fill="none" stroke-linejoin="miter" d="M -0.00106983 5.999198 L 273.426031 5.999198 " stroke="#0d1950" stroke-width="12" stroke-opacity="1" stroke-miterlimit="4"/><path stroke-linecap="butt" transform="matrix(-0.00360641, -0.749991, 0.749991, -0.00360641, 85.547891, 227.560648)" fill="none" stroke-linejoin="miter" d="M -0.0000640925 5.998715 L 162.762242 6.000115 " stroke="#0d1950" stroke-width="12" stroke-opacity="1" stroke-miterlimit="4"/><g fill="#007bff" fill-opacity="1"><g transform="translate(139.907815, 196.623364)"><g><path d="M 6.671875 0 L 15.890625 0 L 15.890625 -21.453125 L 22.890625 -21.453125 C 33.4375 -21.453125 41.15625 -26.765625 41.15625 -36.4375 C 41.15625 -46.21875 33.4375 -51.75 22.890625 -51.75 L 6.671875 -51.75 Z M 15.890625 -30.140625 L 15.890625 -43.0625 L 22.890625 -43.0625 C 29.1875 -43.0625 31.9375 -40.65625 31.9375 -36.4375 C 31.9375 -32.34375 29.265625 -30.140625 22.890625 -30.140625 Z M 15.890625 -30.140625 "/></g></g><g transform="translate(182.644629, 196.623364)"><g><path d="M 28.046875 0.734375 C 38.34375 0.734375 46.578125 -4.5 50.6875 -14.171875 L 42.078125 -17.6875 C 39.296875 -10.734375 34.71875 -8.09375 28.046875 -8.09375 C 16.953125 -8.09375 12.234375 -15.96875 12.234375 -26.25 C 12.234375 -35.859375 16.953125 -43.71875 27.90625 -43.71875 C 34.640625 -43.71875 39.984375 -41.09375 41.9375 -34.28125 L 50.609375 -37.71875 C 46.4375 -47.390625 38.234375 -52.59375 27.984375 -52.59375 C 10.953125 -52.59375 3 -40.0625 3 -25.890625 C 3 -11.6875 11.015625 0.734375 28.046875 0.734375 Z M 28.046875 0.734375 "/></g></g></g><g fill="#0d1950" fill-opacity="1"><g transform="translate(125.463168, 226.998355)"><g><path d="M 2.484375 0 L 9.796875 0 C 13 0 14.296875 -1.140625 14.296875 -3.15625 L 14.296875 -3.65625 C 14.296875 -5.09375 13.625 -5.921875 12.078125 -6.28125 C 13.375 -6.625 13.9375 -7.359375 13.9375 -8.765625 L 13.9375 -9.21875 C 13.9375 -10.9375 12.71875 -12 9.796875 -12 L 2.484375 -12 Z M 3.515625 -6.78125 L 3.515625 -11 L 9.796875 -11 C 12.015625 -11 12.859375 -10.40625 12.859375 -9.21875 L 12.859375 -8.765625 C 12.859375 -7.40625 12.0625 -6.78125 9.796875 -6.78125 Z M 3.515625 -1 L 3.515625 -5.734375 L 9.796875 -5.734375 C 12.28125 -5.734375 13.21875 -5.09375 13.21875 -3.65625 L 13.21875 -3.15625 C 13.21875 -1.734375 12.28125 -1 9.796875 -1 Z M 3.515625 -1 "/></g></g></g><g fill="#0d1950" fill-opacity="1"><g transform="translate(141.836863, 226.998355)"><g><path d="M 9.140625 0.203125 C 14.421875 0.203125 16.5625 -2.046875 16.5625 -5.640625 L 16.5625 -12 L 15.4375 -12 L 15.4375 -5.5625 C 15.4375 -2.4375 13.4375 -0.84375 9.140625 -0.84375 C 4.84375 -0.84375 2.84375 -2.4375 2.84375 -5.5625 L 2.84375 -12 L 1.71875 -12 L 1.71875 -5.5625 C 1.71875 -1.953125 3.859375 0.203125 9.140625 0.203125 Z M 9.140625 0.203125 "/></g></g></g><g fill="#0d1950" fill-opacity="1"><g transform="translate(160.529648, 226.998355)"><g><path d="M 2.484375 0 L 3.515625 0 L 3.515625 -12 L 2.484375 -12 Z M 2.484375 0 "/></g></g></g><g fill="#0d1950" fill-opacity="1"><g transform="translate(166.927278, 226.998355)"><g><path d="M 3.5 -12 L 2.453125 -12 L 2.453125 0 L 13.5 0 L 13.5 -0.921875 L 3.5 -0.921875 Z M 3.5 -12 "/></g></g></g><g fill="#0d1950" fill-opacity="1"><g transform="translate(181.621634, 226.998355)"><g><path d="M 9.015625 -12 L 2.484375 -12 L 2.484375 0 L 9.015625 0 C 14.6875 0 16.640625 -2.046875 16.640625 -5.5625 L 16.640625 -6.4375 C 16.640625 -9.953125 14.6875 -12 9.015625 -12 Z M 15.5625 -5.5625 C 15.5625 -2.515625 13.90625 -1 9.015625 -1 L 3.515625 -1 L 3.515625 -11 L 9.015625 -11 C 13.90625 -11 15.5625 -9.484375 15.5625 -6.4375 Z M 15.5625 -5.5625 "/></g></g></g><g fill="#0d1950" fill-opacity="1"><g transform="translate(200.254439, 226.998355)"><g><path d="M 14.125 -11.078125 L 14.125 -12 L 2.484375 -12 L 2.484375 0 L 14.125 0 L 14.125 -0.921875 L 3.515625 -0.921875 L 3.515625 -5.375 L 13.375 -5.375 L 13.375 -6.296875 L 3.515625 -6.296875 L 3.515625 -11.078125 Z M 14.125 -11.078125 "/></g></g></g><g fill="#0d1950" fill-opacity="1"><g transform="translate(215.988388, 226.998355)"><g><path d="M 14.578125 -1.203125 L 14.578125 -3.125 C 14.578125 -4.359375 14.078125 -5.203125 12.9375 -5.65625 C 14.078125 -6.15625 14.578125 -7.0625 14.578125 -8.4375 L 14.578125 -8.921875 C 14.578125 -10.875 13.296875 -12 10.234375 -12 L 2.484375 -12 L 2.484375 0 L 3.5625 0 L 3.5625 -5.140625 L 10.234375 -5.140625 C 12.59375 -5.140625 13.453125 -4.546875 13.453125 -3.125 L 13.453125 -1.125 C 13.453125 -0.765625 13.484375 -0.359375 13.546875 0 L 14.6875 0 C 14.625 -0.359375 14.578125 -0.765625 14.578125 -1.203125 Z M 3.5625 -6.1875 L 3.5625 -11 L 10.234375 -11 C 12.59375 -11 13.5 -10.34375 13.5 -8.921875 L 13.5 -8.4375 C 13.5 -6.796875 12.59375 -6.1875 10.234375 -6.1875 Z M 3.5625 -6.1875 "/></g></g></g><g fill="#0d1950" fill-opacity="1"><g transform="translate(232.861888, 226.998355)"><g><path d="M 14.015625 -8.046875 L 15.0625 -8.046875 C 15.0625 -11 12.84375 -12.1875 8.546875 -12.1875 C 3.4375 -12.1875 1.625 -10.90625 1.625 -9.234375 L 1.625 -8.796875 C 1.625 -6.765625 3.296875 -6.125 8.09375 -5.625 C 12.8125 -5.140625 13.90625 -4.578125 13.90625 -3.28125 L 13.90625 -2.921875 C 13.90625 -1.5625 11.84375 -0.796875 8.125 -0.796875 C 4.40625 -0.796875 2.640625 -1.65625 2.640625 -4.15625 L 1.59375 -4.15625 C 1.59375 -1.203125 3.421875 0.203125 8.125 0.203125 C 13.140625 0.203125 14.9375 -1.140625 14.9375 -2.796875 L 14.9375 -3.234375 C 14.9375 -5.4375 13.265625 -6.0625 8.21875 -6.578125 C 3.734375 -7.046875 2.65625 -7.625 2.65625 -8.765625 L 2.65625 -9.125 C 2.65625 -10.453125 4.6875 -11.1875 8.546875 -11.1875 C 12.21875 -11.1875 14.015625 -10.34375 14.015625 -8.046875 Z M 14.015625 -8.046875 "/></g></g></g><path stroke-linecap="butt" transform="matrix(-0.00520551, -0.749982, 0.749982, -0.00520551, 281.877526, 227.591997)" fill="none" stroke-linejoin="miter" d="M -0.00232841 6.001969 L 162.793274 6.001673 " stroke="#0d1950" stroke-width="12" stroke-opacity="1" stroke-miterlimit="4"/></svg>